<svg width="1432" height="2174" viewBox="0 0 1432 2174" fill="none" xmlns="http://www.w3.org/2000/svg">
<path d="M1411.74 1069.6H1206.36C1261.9 1061.72 1304.97 1013.7 1304.97 956.081V935.651C1304.97 872.588 1253.38 820.991 1190.32 820.977H1302.27C1310.54 820.977 1317.31 814.212 1317.31 805.944C1317.31 797.676 1310.54 790.911 1302.27 790.911H1291.1V620.923H1302.27C1310.54 620.923 1317.31 614.158 1317.31 605.89C1317.31 597.622 1310.54 590.857 1302.27 590.857H1216.32C1222.62 590.857 1228.36 588.276 1232.51 584.12C1232.69 583.939 1232.83 583.715 1233 583.529C1234.38 582.058 1235.52 580.392 1236.48 578.602C1237.27 577.109 1237.91 575.536 1238.36 573.871C1238.88 571.961 1239.25 569.991 1239.25 567.923V428.771C1239.25 416.157 1228.93 405.836 1216.32 405.836H41.048C28.434 405.836 18.113 416.157 18.113 428.771V567.922C18.113 580.536 28.434 590.857 41.048 590.857H289.285C281.017 590.857 274.252 597.621 274.252 605.89C274.252 614.158 281.017 620.923 289.285 620.923H293.525V790.911H289.285C281.017 790.911 274.252 797.676 274.252 805.944C274.252 814.21 281.013 820.973 289.279 820.976H102.77V852.198H131.632V1039.53H102.77V1070.75H216.62C208.926 1073.42 203.328 1080.68 203.328 1089.26V1214.14V1270.81C203.328 1274.64 204.482 1278.2 206.4 1281.23C208.771 1284.98 212.366 1287.83 216.62 1289.31H19.658C8.84599 1289.31 0 1298.16 0 1308.97V1490.52C0 1501.33 8.84599 1510.18 19.658 1510.18H225.043C169.508 1518.05 126.431 1566.08 126.431 1623.7V1644.13C126.431 1707.19 178.028 1758.8 241.093 1758.8H129.129C120.861 1758.8 114.096 1765.57 114.096 1773.83C114.096 1782.1 120.86 1788.87 129.129 1788.87H140.307V1958.85H129.129C120.861 1958.85 114.096 1965.62 114.096 1973.89C114.096 1982.16 120.86 1988.92 129.129 1988.92H198.704C186.09 1988.92 175.769 1999.24 175.769 2011.86V2151.01C175.769 2152.58 175.93 2154.12 176.237 2155.61C176.684 2157.78 177.53 2159.79 178.545 2161.69C179.028 2162.59 179.57 2163.46 180.163 2164.29C181.044 2165.53 182.076 2166.63 183.173 2167.67C187.251 2171.52 192.677 2173.94 198.704 2173.94H1373.97C1386.59 2173.94 1396.91 2163.62 1396.91 2151.01V2011.86C1396.91 1999.24 1386.59 1988.92 1373.97 1988.92H1142.12C1150.39 1988.92 1157.15 1982.16 1157.15 1973.89C1157.15 1965.62 1150.39 1958.85 1142.12 1958.85H1137.88V1788.87H1142.12C1150.39 1788.87 1157.15 1782.1 1157.15 1773.83C1157.15 1765.57 1150.39 1758.8 1142.12 1758.8H1339.09V1727.58H1299.77V1540.25H1339.09V1509.02H1214.9C1216.98 1508.28 1218.9 1507.2 1220.6 1505.84C1220.6 1505.84 1220.6 1505.84 1220.6 1505.83C1221.37 1505.22 1222.08 1504.55 1222.74 1503.83C1222.88 1503.68 1223.03 1503.53 1223.17 1503.37C1223.83 1502.61 1224.46 1501.81 1225 1500.95C1226.92 1497.91 1228.08 1494.35 1228.08 1490.52V1433.86V1308.97C1228.08 1300.4 1222.48 1293.14 1214.78 1290.47H1411.75C1422.56 1290.47 1431.41 1281.62 1431.41 1270.81V1089.26C1431.4 1078.44 1422.56 1069.6 1411.74 1069.6Z" fill="#FBF7F7"/>
<path d="M1373.97 1988.92H198.704C186.09 1988.92 175.769 1999.24 175.769 2011.86V2151.01C175.769 2152.58 175.93 2154.12 176.237 2155.61C176.684 2157.78 177.53 2159.78 178.545 2161.69C182.412 2168.93 189.961 2173.94 198.704 2173.94H312.222L351.539 2173.94L388.543 2173.94L1373.97 2173.94C1386.59 2173.94 1396.91 2163.62 1396.91 2151.01V2011.86C1396.91 1999.24 1386.59 1988.92 1373.97 1988.92Z" fill="#2C852A"/>
<path d="M198.704 2173.94H312.222V2086.06H175.77V2151.01C175.77 2152.58 175.931 2154.12 176.238 2155.61C176.685 2157.78 177.531 2159.78 178.546 2161.69C182.412 2168.93 189.962 2173.94 198.704 2173.94Z" fill="#2C852A"/>
<path d="M388.544 2086.06H351.54V2173.94H388.544V2086.06Z" fill="#2C852A"/>
<path d="M1373.97 2173.94C1386.59 2173.94 1396.91 2163.62 1396.91 2151.01V2086.06H1137.88V2132.31H541.186V2086.06H427.861V2173.94L1373.97 2173.94Z" fill="#2C852A"/>
<path d="M351.54 1988.92H312.223V2173.94H351.54V1988.92Z" fill="#2BD127"/>
<path d="M427.861 1988.92H388.544V2173.94H427.861V1988.92Z" fill="#2BD127"/>
<path d="M1137.88 2028.24H541.186V2132.31H1137.88V2028.24Z" fill="#2BD127"/>
<path d="M1373.75 221H198.485C185.871 221 175.55 231.321 175.55 243.935V383.086C175.55 384.662 175.711 386.203 176.018 387.693C176.465 389.861 177.311 391.864 178.326 393.765C182.193 401.008 189.742 406.02 198.485 406.02H312.003L351.32 406.021L388.324 406.02L1373.75 406.021C1386.37 406.021 1396.69 395.7 1396.69 383.086V243.935C1396.69 231.321 1386.37 221 1373.75 221Z" fill="#808080"/>
<path d="M388.325 318.137H351.321V406.021H388.325V318.137Z" fill="#808080"/>
<path d="M1299.77 1540.25H285.778C282.357 1540.25 278.986 1540.41 275.642 1540.65C274.627 1540.72 273.624 1540.83 272.617 1540.93C270.228 1541.15 267.864 1541.43 265.524 1541.78C264.482 1541.93 263.439 1542.08 262.408 1542.26C259.739 1542.71 257.109 1543.25 254.516 1543.85C253.973 1543.98 253.414 1544.08 252.875 1544.21C249.821 1544.96 246.834 1545.84 243.9 1546.79C243.192 1547.02 242.507 1547.28 241.807 1547.53C241.801 1547.52 241.794 1547.52 241.788 1547.51C241.568 1547.59 241.36 1547.68 241.14 1547.76C239.102 1548.47 237.092 1549.23 235.121 1550.04C234.087 1550.46 233.061 1550.89 232.046 1551.34C230.096 1552.2 228.194 1553.11 226.319 1554.06C225.491 1554.48 224.641 1554.88 223.827 1555.31C221.326 1556.65 218.901 1558.08 216.553 1559.57C215.68 1560.13 214.857 1560.72 214.007 1561.3C212.471 1562.34 210.961 1563.4 209.501 1564.5C208.535 1565.23 207.595 1565.98 206.664 1566.73C205.353 1567.8 204.09 1568.9 202.85 1570.01C201.992 1570.78 201.117 1571.54 200.295 1572.33C198.458 1574.11 196.697 1575.93 195.042 1577.81C194.337 1578.62 193.712 1579.46 193.042 1580.28C192.017 1581.54 191.009 1582.8 190.066 1584.1C189.345 1585.1 188.667 1586.11 187.995 1587.13C187.192 1588.34 186.434 1589.58 185.705 1590.83C185.102 1591.86 184.49 1592.89 183.938 1593.94C183.826 1594.16 183.741 1594.38 183.631 1594.6C178.614 1604.41 175.769 1615.08 175.769 1626.25V1641.57C175.769 1682.73 213.248 1717.34 262.828 1725.65C285.469 1704.91 299.502 1676.13 299.502 1644.32C299.502 1626.5 295.101 1656.61 287.251 1641.57H1299.77L1299.77 1540.25H1299.77Z" fill="#B0B0B0"/>
<path d="M299.502 1644.32C299.502 1626.5 295.1 1609.63 287.25 1594.6C277.147 1575.24 261.312 1558.94 241.806 1547.53C241.8 1547.52 241.793 1547.52 241.787 1547.51C241.567 1547.59 241.359 1547.68 241.139 1547.76C239.101 1548.47 237.091 1549.23 235.12 1550.04C234.086 1550.46 233.06 1550.89 232.045 1551.34C230.095 1552.2 228.193 1553.11 226.318 1554.06C225.49 1554.48 224.64 1554.88 223.826 1555.31C221.325 1556.65 218.9 1558.08 216.552 1559.57C215.679 1560.13 214.856 1560.72 214.006 1561.3C212.47 1562.34 210.96 1563.4 209.5 1564.5C208.534 1565.23 207.594 1565.98 206.663 1566.73C205.352 1567.8 204.089 1568.9 202.849 1570.01C201.991 1570.78 201.116 1571.54 200.294 1572.33C198.457 1574.11 196.696 1575.93 195.041 1577.81C194.336 1578.62 193.711 1579.46 193.041 1580.28C192.016 1581.54 191.008 1582.8 190.065 1584.1C189.344 1585.1 188.666 1586.11 187.994 1587.13C187.191 1588.34 186.433 1589.58 185.704 1590.83C185.101 1591.86 184.489 1592.89 183.937 1593.94C183.825 1594.16 183.74 1594.38 183.63 1594.6C178.613 1604.41 175.768 1615.08 175.768 1626.25V1641.57C175.768 1682.73 213.247 1717.34 262.827 1725.65C285.469 1704.91 299.502 1676.13 299.502 1644.32Z" fill="#808080"/>
<path d="M1228.08 1433.86V1308.97C1228.08 1300.4 1222.48 1293.14 1214.78 1290.47H1214.78C1212.77 1289.77 1210.66 1289.31 1208.42 1289.31H19.658C8.84599 1289.31 0 1298.16 0 1308.97V1490.52C0 1501.33 8.84599 1510.18 19.658 1510.18H1208.42C1208.43 1510.18 1208.44 1510.18 1208.45 1510.18C1213.05 1510.17 1217.25 1508.53 1220.6 1505.84C1220.6 1505.84 1220.6 1505.84 1220.6 1505.84C1221.37 1505.22 1222.08 1504.55 1222.74 1503.83C1222.88 1503.68 1223.03 1503.53 1223.17 1503.37C1223.83 1502.61 1224.46 1501.81 1225 1500.95C1226.92 1497.92 1228.08 1494.36 1228.08 1490.52V1433.86Z" fill="#B0B0B0"/>
<path d="M1082.22 1433.86V1289.31H1042.91V1433.86H390.856V1289.31H351.54V1433.86H312.223V1289.31H272.905V1433.86H231.276V1299.72H114.096V1433.86H0V1490.52C0 1501.33 8.84599 1510.18 19.658 1510.18H1208.42C1215.4 1510.18 1221.51 1506.47 1225 1500.95C1226.92 1497.91 1228.07 1494.35 1228.07 1490.52V1433.86L1082.22 1433.86Z" fill="#B0B0B0"/>
<path d="M312.222 1289.31H272.905V1509.02H312.222V1289.31Z" fill="#808080"/>
<path d="M390.857 1289.31H351.54V1509.02H390.857V1289.31Z" fill="#808080"/>
<path d="M1082.22 1289.31H1042.91V1509.02H1082.22V1289.31Z" fill="#808080"/>
<path d="M1250.08 144.548V19.6589C1250.08 11.0859 1244.48 3.82701 1236.78 1.15601H1236.78C1234.77 0.459006 1232.66 0.000976562 1230.42 0.000976562H41.658C30.846 0.000976562 22 8.84791 22 19.6599V201.212C22 212.024 30.846 220.871 41.658 220.871H1230.42C1230.43 220.871 1230.44 220.868 1230.45 220.868C1235.05 220.861 1239.25 219.219 1242.6 216.531C1242.6 216.529 1242.6 216.527 1242.6 216.525C1243.37 215.911 1244.08 215.24 1244.74 214.521C1244.88 214.369 1245.03 214.22 1245.17 214.063C1245.83 213.297 1246.46 212.499 1247 211.638C1248.92 208.605 1250.08 205.045 1250.08 201.211V144.548Z" fill="#B0B0B0"/>
<path d="M1104.22 144.548V0H1064.91V144.548H412.856V0H373.54V144.548H334.223V0H294.905V144.548H253.276V10.408H136.096V144.548H22V201.21C22 212.023 30.846 220.868 41.658 220.868H1230.42C1237.4 220.868 1243.51 217.157 1247 211.636C1248.92 208.603 1250.07 205.043 1250.07 201.209V144.547L1104.22 144.548Z" fill="#B0B0B0"/>
<path d="M334.222 0H294.905V219.713H334.222V0Z" fill="#808080"/>
<path d="M412.857 0H373.54V219.713H412.857V0Z" fill="#808080"/>
<path d="M1104.22 0H1064.91V219.713H1104.22V0Z" fill="#808080"/>
<path d="M1411.75 1069.6H1206.36C1201.11 1070.34 1195.75 1070.75 1190.3 1070.75H216.619C208.925 1073.43 203.327 1080.68 203.327 1089.26V1214.15V1270.81C203.327 1274.64 204.481 1278.2 206.399 1281.23C208.77 1284.98 212.366 1287.83 216.622 1289.31H1208.42C1210.65 1289.31 1212.77 1289.77 1214.78 1290.47H1214.78H1411.75C1422.56 1290.47 1431.4 1281.62 1431.4 1270.81V1089.26C1431.4 1078.44 1422.56 1069.6 1411.75 1069.6Z" fill="#808080"/>
<path d="M1133.32 918.113C1132.39 923.769 1131.9 929.561 1131.9 935.458C1131.9 976.218 1154.95 1011.98 1189.62 1032.26C1228.37 1018.92 1255.63 988.612 1255.63 953.527V938.204C1255.63 931.28 1254.46 924.575 1252.46 918.113C1252.19 917.239 1251.9 916.369 1251.6 915.506C1251.15 914.233 1250.72 912.957 1250.2 911.708C1249.66 910.406 1249.01 909.141 1248.39 907.867C1247.59 906.208 1246.74 904.569 1245.81 902.961C1244.81 901.241 1243.8 899.529 1242.66 897.872C1241.92 896.789 1241.08 895.758 1240.29 894.703C1239.4 893.535 1238.53 892.361 1237.58 891.228C1236.7 890.184 1235.76 889.181 1234.83 888.169C1233.83 887.083 1232.82 886.005 1231.76 884.958C1230.78 883.993 1229.77 883.052 1228.74 882.121C1227.59 881.085 1226.41 880.074 1225.2 879.081C1224.16 878.22 1223.11 877.363 1222.02 876.537C1220.66 875.509 1219.25 874.531 1217.83 873.558C1216.79 872.847 1215.78 872.116 1214.7 871.435C1212.8 870.227 1210.82 869.094 1208.81 867.986C1208.14 867.614 1207.51 867.202 1206.82 866.843C1204.14 865.431 1201.37 864.122 1198.53 862.894C1197.54 862.464 1196.5 862.092 1195.49 861.686C1193.54 860.903 1191.57 860.137 1189.56 859.444C1188.36 859.034 1187.15 858.67 1185.94 858.292C1184.01 857.695 1182.07 857.128 1180.1 856.614C1178.83 856.283 1177.55 855.974 1176.26 855.679C1174.25 855.217 1172.2 854.81 1170.13 854.439C1169.61 854.344 1169.1 854.212 1168.57 854.123C1168.56 854.136 1168.54 854.148 1168.53 854.162C1150.11 871.061 1137.4 893.273 1133.32 918.113Z" fill="#808080"/>
<path d="M1216.32 405.836H41.0478C28.4338 405.836 18.1128 416.157 18.1128 428.771V567.922C18.1128 580.537 28.4338 590.857 41.0478 590.857H1216.32C1222.62 590.857 1228.36 588.276 1232.51 584.12C1232.69 583.939 1232.83 583.715 1233 583.529C1234.38 582.058 1235.52 580.392 1236.47 578.602C1237.27 577.109 1237.91 575.536 1238.36 573.871C1238.88 571.961 1239.25 569.991 1239.25 567.922V428.771C1239.25 416.157 1228.93 405.836 1216.32 405.836Z" fill="#B0B0B0"/>
<path d="M873.835 502.973V445.153H277.142V502.973H18.1128V567.922C18.1128 580.537 28.4338 590.857 41.0478 590.857H1216.32C1222.62 590.857 1228.36 588.276 1232.51 584.12C1232.69 583.939 1232.83 583.715 1233 583.529C1234.38 582.058 1235.52 580.392 1236.47 578.602C1237.27 577.109 1237.91 575.536 1238.36 573.871C1238.88 571.961 1239.25 569.991 1239.25 567.922V502.973H873.835Z" fill="#B0B0B0"/>
<path d="M129.129 1958.85C120.861 1958.85 114.096 1965.62 114.096 1973.89C114.096 1982.16 120.86 1988.92 129.129 1988.92H1142.12C1150.39 1988.92 1157.15 1982.16 1157.15 1973.89C1157.15 1965.62 1150.39 1958.85 1142.12 1958.85H129.129Z" fill="#2C852A"/>
<path d="M241.093 1758.8H129.129C120.861 1758.8 114.096 1765.57 114.096 1773.83C114.096 1782.1 120.86 1788.87 129.129 1788.87H1142.12C1150.39 1788.87 1157.15 1782.1 1157.15 1773.83C1157.15 1765.57 1150.39 1758.8 1142.12 1758.8H241.105C241.101 1758.8 241.097 1758.8 241.093 1758.8Z" fill="#2C852A"/>
<path d="M225.043 1510.18C169.508 1518.05 126.431 1566.08 126.431 1623.7V1644.13C126.431 1707.19 178.028 1758.79 241.093 1758.8C241.097 1758.8 241.101 1758.8 241.106 1758.8H1339.09V1727.58H285.778C277.909 1727.58 270.241 1726.9 262.829 1725.65C213.249 1717.34 175.77 1682.73 175.77 1641.57V1626.25C175.77 1615.08 178.614 1604.41 183.632 1594.6H183.57C183.683 1594.37 183.823 1594.16 183.939 1593.94C184.491 1592.89 185.102 1591.86 185.706 1590.83C186.435 1589.58 187.193 1588.34 187.996 1587.13C188.668 1586.11 189.345 1585.1 190.067 1584.1C191.009 1582.8 192.018 1581.54 193.043 1580.28C193.713 1579.46 194.339 1578.62 195.043 1577.81C196.697 1575.93 198.46 1574.11 200.296 1572.33C201.118 1571.54 201.993 1570.78 202.851 1570.01C204.092 1568.89 205.354 1567.8 206.665 1566.73C207.596 1565.98 208.536 1565.23 209.502 1564.5C210.962 1563.4 212.472 1562.34 214.008 1561.3C214.858 1560.72 215.681 1560.13 216.554 1559.57C218.902 1558.08 221.327 1556.65 223.828 1555.31C224.642 1554.87 225.492 1554.48 226.32 1554.06C228.195 1553.11 230.097 1552.2 232.047 1551.34C233.062 1550.89 234.088 1550.46 235.122 1550.04C237.094 1549.23 239.102 1548.47 241.141 1547.76C241.361 1547.68 241.569 1547.59 241.789 1547.51C242.493 1547.27 243.189 1547.02 243.901 1546.79C246.836 1545.84 249.822 1544.97 252.876 1544.21C253.415 1544.08 253.974 1543.98 254.517 1543.85C257.111 1543.25 259.74 1542.71 262.409 1542.26C263.441 1542.08 264.482 1541.93 265.525 1541.78C267.865 1541.43 270.229 1541.15 272.618 1540.93C273.626 1540.83 274.627 1540.72 275.643 1540.65C278.987 1540.41 282.358 1540.25 285.779 1540.25H1339.09V1509.02H1214.79C1212.78 1509.72 1210.66 1510.18 1208.42 1510.18L225.043 1510.18Z" fill="#808080"/>
<path d="M241.093 1758.8C178.028 1758.79 126.431 1707.19 126.431 1644.13L175.77 1641.57C175.77 1682.73 213.249 1717.34 262.829 1725.65C270.241 1726.9 277.909 1727.58 285.778 1727.58H1339.09V1758.8H241.106H241.093Z" fill="#2C852A"/>
<path d="M1302.27 620.923C1310.54 620.923 1317.31 614.158 1317.31 605.89C1317.31 597.622 1310.54 590.857 1302.27 590.857H289.285C281.017 590.857 274.252 597.621 274.252 605.89C274.252 614.158 281.017 620.923 289.285 620.923H1302.27Z" fill="#B0B0B0"/>
<path d="M1190.32 820.977H1302.27C1310.54 820.977 1317.31 814.212 1317.31 805.944C1317.31 797.676 1310.54 790.911 1302.27 790.911H289.285C281.017 790.911 274.252 797.676 274.252 805.944C274.252 814.21 281.013 820.973 289.279 820.976H1190.3C1190.31 820.976 1190.32 820.977 1190.32 820.977Z" fill="#B0B0B0"/>
<path d="M1190.3 1070.75C1195.75 1070.75 1201.11 1070.34 1206.36 1069.6C1261.9 1061.72 1304.97 1013.7 1304.97 956.081V935.651C1304.97 872.588 1253.38 820.991 1190.32 820.977C1190.32 820.977 1190.31 820.976 1190.3 820.976H102.77V852.198H131.632L1145.63 852.197C1149.16 852.197 1152.65 852.356 1156.1 852.614C1157.22 852.698 1158.32 852.845 1159.42 852.955C1161.74 853.185 1164.05 853.442 1166.32 853.784C1167.08 853.897 1167.83 853.999 1168.58 854.125C1169.1 854.214 1169.61 854.346 1170.14 854.441C1172.2 854.813 1174.24 855.219 1176.27 855.681C1177.56 855.976 1178.83 856.285 1180.1 856.616C1182.08 857.129 1184.01 857.696 1185.94 858.294C1187.15 858.672 1188.36 859.036 1189.56 859.446C1191.57 860.139 1193.54 860.904 1195.49 861.688C1196.5 862.095 1197.54 862.466 1198.53 862.896C1201.37 864.124 1204.15 865.432 1206.83 866.845C1207.51 867.205 1208.14 867.616 1208.81 867.988C1210.82 869.097 1212.8 870.228 1214.71 871.437C1215.78 872.118 1216.79 872.849 1217.83 873.56C1219.25 874.533 1220.66 875.511 1222.02 876.539C1223.11 877.365 1224.16 878.222 1225.2 879.083C1226.41 880.076 1227.59 881.086 1228.74 882.123C1229.77 883.054 1230.78 883.995 1231.76 884.96C1232.82 886.008 1233.83 887.084 1234.83 888.171C1235.76 889.183 1236.7 890.186 1237.58 891.23C1238.53 892.363 1239.4 893.536 1240.29 894.705C1241.09 895.76 1241.92 896.791 1242.66 897.874C1243.8 899.532 1244.82 901.243 1245.81 902.963C1246.74 904.571 1247.59 906.211 1248.39 907.869C1249.01 909.143 1249.66 910.408 1250.2 911.71C1250.72 912.959 1251.15 914.235 1251.6 915.508C1251.9 916.38 1252.28 917.231 1252.55 918.115H1252.46C1254.46 924.576 1255.64 931.282 1255.64 938.206V953.529C1255.64 988.614 1228.37 1018.93 1189.62 1032.27C1176.12 1036.91 1161.26 1039.53 1145.63 1039.53H102.77V1070.76H1190.3V1070.75Z" fill="#808080"/>
<path d="M873.834 445.153H277.142V549.227H873.834V445.153Z" fill="#808080"/>
</svg>
